<svg xmlns="http://www.w3.org/2000/svg" version="1.1" xmlns:xlink="http://www.w3.org/1999/xlink" xmlns:svgjs="http://svgjs.dev/svgjs" width="2000" height="2242" viewBox="0 0 2000 2242"><g transform="matrix(1,0,0,1,-3.1151183800621993,0)"><svg viewBox="0 0 321 360" data-background-color="#091217" preserveAspectRatio="xMidYMid meet" height="2242" width="2000" xmlns="http://www.w3.org/2000/svg" xmlns:xlink="http://www.w3.org/1999/xlink"><g id="tight-bounds" transform="matrix(1,0,0,1,0.5000234999999975,0)"><svg viewBox="0 0 320 360" height="360" width="320"><g><svg></svg></g><g><svg viewBox="0 0 320 360" height="360" width="320"><g><path transform="translate(-74.99272,-51.79039) scale(4.65793,4.65793)" d="M20.6 59.9l0.8 1-0.4-1.3c-0.1-0.6-0.8 0.1-0.4 0.3M21.5 59.3c0.3 0.5 0.6 1 0.6 1.5 0 0.7 0.6 1 1.1 1.2-0.7-0.8-1.1-3-1.7-2.7M59.9 16.9c1.7 0 3.3-0.2 5.1 0.2 4.4 1.1 8.1 3.3 10.6 6.4l7 11.2c0.3 2.8 0.9 5.9 0.8 9.3 0.7 0 0.6-1 1.4-1.2-0.8 2-1.2 4.5-1.4 7.4-0.5-1.6 0-4 0.1-5.3-0.7 1.1-1.1 0.3-1.1-0.2 0.1-0.8-0.3-0.7-0.6-1-1.1-1-1.8-2.1-2.6-3.8 0.5-1.3 0.6-3.2-1-4.2-0.5-0.3-1.1-0.8-1.4-1.6-0.4-1.1-1.1-2.4-0.9-4.1 0.1-0.5-1.5 1.1-2.4 0.4-3.9-2.7-7.8-5.8-12.5-8.4-2.5 0-4.3-0.9-5.2-2-0.8-1-0.2-2.3 1-2.4 0.7 0 1.5-0.2 2.1 0.2 0.1-0.4 0.5-0.9 1-0.9M50 14.6l0.2 0.1c1 0.2 1.5 1.6 2.6 1.1 0 0.7 0.1 1.4-0.1 1.9-0.3 0.8-1.2 0.8-1.9 0.8-6.7-0.4-10.6 2.4-14.7 4.8-1.1 0.7-2.3 1.2-3.2 2.1-4.3 4-9 7.7-10.1 15.1l-0.9 8.2c-0.1 0.9-1.1 1.8-0.9 2.9l0.7 4.9c-0.7-0.7-1.1 0.2-0.9 0.6 0.1 0.3 0.5 1.3 1.1 0.4 0.8 1.5 1.6 4.4 2.7 5.7 3.4 4 7.8 7.6 11.4 11.2 0.9-0.2 1.6-0.2 1.8-0.8 0.3 0.6-0.3 1.2-0.8 1.3 1.6 1 3.4 1.9 5.8 2.1 3.1 0.2 6 0.7 8.7 1.4 1.4-0.4 2.8-0.6 4.3-0.7 0.5 0 0.8-0.8 1.4-1l0.1-1c0.6 0.9 0.5-0.3 0.1-0.9 0.7 0.6 0.9 1.1 1.2 1.5 0-0.3 0.8-1.4 0.8-0.1l0.2-1.3c0.3-0.2 0.4 1.1 0.7 0.2 0.3-0.9 0.9-0.2 1.5-0.5-0.2 0.4-0.1 1.2 0.6 0.7l0.8-0.7c0.5 1.2 1.3 0.7 1.7 0.5 4.4-2.8 8.8-6.1 13-9.4l-0.1 1.3 0.5-1.6c0.5 0.5 0.9 0.1 1.1-0.2 0.6-1 1.4-2 2.7-2.9-1.6 4.3-3.5 7.7-5.9 10.5l-1 1.2c0 0.7-0.2 1.6-1 1.7-0.4 0.1-1.2-0.2-1.8 0.4-0.3 0.4 0.7 1.2-0.1 0.6-0.7-0.5-1.4 0-2.2 0.2-0.6 0.2 0.4 0.8 0.6 1.2 0.2 0.4 0.4 0.8 0.3 1.3l-1.1-1.2c-1.3 0.7-2.1 2-3.2 3-0.5 0.4-0.3 1.1-0.3 1.7-0.7 0-1.5-0.2-1.9 0.2-0.3 0.4-0.2 1-0.2 1.6-1-0.1-1.1-1.6-2-1.3-0.9 0.2-1.9 0.3-2.7 0.8 0.6 1.2-1 0.5-0.8 0.7-1.5-0.9-2.8-1.6-4.4-1-3.4-1.1-7.6-0.6-10.7-0.2 0-0.5 0.1-1-0.1-1.1-0.2 0.5-0.8 0.3-0.7 0.3-1.9-1.3-3.8-2.1-5.8-3.2-1.8 0.2-3.5-0.7-4-1.2-1.4-1.3-3-0.6-4.3-0.9-2.8-0.7-3.8-3.6-4.1-5.6-0.2-1-1-1.4-1.3-1.3-1.3-4.2-3.3-8-4.9-11.9-0.4-1-0.3-2-0.3-3.1 0.5 0.2 1 0.1 0.9-0.6-0.5-3.3-1.7-5.8-3-8.2 0.7-3.4 0.8-7.4 2.4-10.4 1.4-2.7 4-4.1 5.8-6.4 0.6-0.8 0.6-1.9 1.2-2.6 2-2 4-4.1 6.2-5.9 1-0.8 2.2 0 3.7-0.3 0.5-1.8 2.5-3.4 4.4-2.9 0.8 0.2 2.4-1.9 2.9-2.1 0.8-0.3 0.4 0.8 0.4 1.5 1.9-1.5 4.5-2.3 6.9-3.2" fill="#000000" fill-rule="nonzero" stroke="none" stroke-width="1" stroke-linecap="butt" stroke-linejoin="miter" stroke-miterlimit="10" stroke-dasharray="" stroke-dashoffset="0" font-family="none" font-weight="none" font-size="none" text-anchor="none" style="mix-blend-mode: normal" data-fill-palette-color="tertiary"></path></g><g transform="matrix(1,0,0,1,64,124.52080056480082)"><svg viewBox="0 0 192 110.95839887039836" height="110.95839887039836" width="192"><g><svg viewBox="0 0 192 110.95839887039836" height="110.95839887039836" width="192"><g><svg viewBox="0 0 192 110.95839887039836" height="110.95839887039836" width="192"><g transform="matrix(1,0,0,1,0,67.06530759455369)"><svg viewBox="0 0 192 43.89309127584467" height="43.89309127584467" width="192"><g id="textblocktransform"><svg viewBox="0 0 192 43.89309127584467" height="43.89309127584467" width="192" id="textblock"><g><svg viewBox="0 0 192 43.89309127584467" height="43.89309127584467" width="192"><g transform="matrix(1,0,0,1,0,0)"><svg width="192" viewBox="3.78 -33.48 148.71 34.01" height="43.89309127584467" data-palette-color="#e0e9ee"><path d="M26.68 0L22.4 0 21.5-6.55Q21.25-8.4 20.65-9.76 20.05-11.13 18.81-11.9 17.57-12.68 15.3-12.68L15.3-12.68 6.63-12.7 6.63-15.98 15.9-16Q19.18-16 20.58-17.61 21.98-19.23 21.98-22L21.98-22 21.98-22.75Q21.98-25.5 20.55-27.01 19.13-28.53 15.8-28.53L15.8-28.53 6.5-28.53 6.5-31.95 16.35-31.95Q21.5-31.95 23.84-29.69 26.18-27.43 26.18-23.45L26.18-23.45 26.18-22.6Q26.18-19.48 24.7-17.49 23.23-15.5 19.8-15.08L19.8-15.08 19.8-14.58 18.03-15.2Q20.8-15 22.31-13.99 23.83-12.98 24.53-11.23 25.23-9.47 25.6-7.03L25.6-7.03 26.68 0ZM7.88 0L3.78 0 3.78-31.95 7.85-31.95 7.85-14.88 7.88-13.3 7.88 0ZM50.57 0L46.55 0 46.72-5.93 46.57-6.55 46.57-14.33 46.6-15.75Q46.6-18.73 45.09-20.15 43.57-21.58 40.3-21.58L40.3-21.58Q37.67-21.58 35.48-20.83 33.3-20.08 31.6-19.07L31.6-19.07 31.97-22.53Q32.92-23.1 34.23-23.66 35.55-24.23 37.23-24.6 38.92-24.98 40.95-24.98L40.95-24.98Q43.57-24.98 45.41-24.34 47.25-23.7 48.39-22.5 49.52-21.3 50.05-19.6 50.57-17.9 50.57-15.8L50.57-15.8 50.57 0ZM38.15 0.53L38.15 0.53Q34.52 0.53 32.59-1.24 30.65-3 30.65-6.28L30.65-6.28 30.65-7Q30.65-10.38 32.73-12.04 34.82-13.7 39.37-14.35L39.37-14.35 47.1-15.45 47.32-12.5 39.87-11.43Q37.07-11.03 35.87-10.06 34.67-9.1 34.67-7.23L34.67-7.23 34.67-6.83Q34.67-4.9 35.86-3.88 37.05-2.85 39.42-2.85L39.42-2.85Q41.52-2.85 43.02-3.58 44.52-4.3 45.45-5.53 46.37-6.75 46.7-8.25L46.7-8.25 47.32-5.5 46.55-5.5Q46.2-3.9 45.23-2.53 44.27-1.15 42.55-0.31 40.82 0.53 38.15 0.53ZM60.9 0L56.85 0 56.85-24.4 60.9-24.4 60.9 0ZM58.87-28.4L58.87-28.4Q57.62-28.4 57.01-29.06 56.4-29.73 56.4-30.88L56.4-30.88 56.4-31Q56.4-32.18 57.01-32.83 57.62-33.48 58.87-33.48L58.87-33.48Q60.12-33.48 60.75-32.83 61.37-32.18 61.37-31L61.37-31 61.37-30.88Q61.37-29.7 60.75-29.05 60.12-28.4 58.87-28.4ZM75.64 0.53L75.64 0.53Q71.24 0.53 68.94-2.2 66.64-4.93 66.64-10.15L66.64-10.15 66.64-14.18Q66.64-19.43 68.97-22.19 71.29-24.95 75.82-24.95L75.82-24.95Q78.07-24.95 79.72-24.19 81.37-23.43 82.39-22.05 83.42-20.68 83.77-18.8L83.77-18.8 85.09-18.8 83.89-15.08Q83.82-17.23 82.93-18.69 82.04-20.15 80.53-20.9 79.02-21.65 77.07-21.65L77.07-21.65Q73.97-21.65 72.33-19.85 70.69-18.05 70.69-14.55L70.69-14.55 70.69-9.9Q70.69-6.45 72.33-4.65 73.97-2.85 77.07-2.85L77.07-2.85Q78.92-2.85 80.34-3.56 81.77-4.28 82.71-5.54 83.64-6.8 83.99-8.4L83.99-8.4 84.99-5.5 83.79-5.5Q83.44-3.85 82.46-2.48 81.47-1.1 79.81-0.29 78.14 0.53 75.64 0.53ZM87.84 0L83.79 0 83.97-5.9 83.89-7.2 83.89-17.4 83.92-18.25 83.82-25.18 83.82-33.13 87.84-33.13 87.84 0ZM106.47 0.53L106.47 0.53Q104.22 0.53 102.55-0.23 100.89-0.98 99.87-2.38 98.84-3.78 98.49-5.63L98.49-5.63 97.14-5.63 98.37-9.43Q98.49-7.23 99.4-5.76 100.32-4.3 101.84-3.58 103.37-2.85 105.29-2.85L105.29-2.85Q108.34-2.85 109.95-4.65 111.57-6.45 111.57-10L111.57-10 111.57-14.58Q111.57-18.05 109.94-19.85 108.32-21.65 105.22-21.65L105.22-21.65Q103.37-21.65 101.94-20.93 100.52-20.2 99.58-18.95 98.64-17.7 98.29-16.1L98.29-16.1 97.37-18.93 98.52-18.93Q98.89-20.6 99.85-21.96 100.82-23.33 102.49-24.14 104.17-24.95 106.64-24.95L106.64-24.95Q111.04-24.95 113.34-22.21 115.64-19.48 115.64-14.28L115.64-14.28 115.64-10.23Q115.64-4.98 113.3-2.23 110.97 0.53 106.47 0.53ZM98.49 0L94.44 0 94.44-33.13 98.47-33.13 98.47-25.18 98.34-18.18 98.37-17.4 98.37-7.2 98.32-5.9 98.49 0ZM125.41 0L121.36 0 121.36-24.4 125.41-24.4 125.41 0ZM123.39-28.4L123.39-28.4Q122.14-28.4 121.53-29.06 120.91-29.73 120.91-30.88L120.91-30.88 120.91-31Q120.91-32.18 121.53-32.83 122.14-33.48 123.39-33.48L123.39-33.48Q124.64-33.48 125.26-32.83 125.89-32.18 125.89-31L125.89-31 125.89-30.88Q125.89-29.7 125.26-29.05 124.64-28.4 123.39-28.4ZM152.49 0L148.44 0 148.44-15.18Q148.44-17.15 147.9-18.57 147.36-20 146.15-20.79 144.94-21.58 142.84-21.58L142.84-21.58Q140.91-21.58 139.5-20.85 138.09-20.13 137.21-18.89 136.34-17.65 135.99-16.07L135.99-16.07 135.26-18.95 136.13-18.95Q136.53-20.6 137.53-21.96 138.53-23.33 140.22-24.14 141.91-24.95 144.36-24.95L144.36-24.95Q147.26-24.95 149.05-23.85 150.84-22.75 151.66-20.69 152.49-18.63 152.49-15.63L152.49-15.63 152.49 0ZM136.16 0L132.11 0 132.11-24.4 136.16-24.4 135.99-18.55 136.16-18.32 136.16 0Z" opacity="1" transform="matrix(1,0,0,1,0,0)" fill="#000000" class="wordmark-text-0" data-fill-palette-color="primary" id="text-0"></path></svg></g></svg></g></svg></g></svg></g><g transform="matrix(1,0,0,1,57.45142318878468,0)"><svg viewBox="0 0 77.09715362243064 60.660252143217335" height="60.660252143217335" width="77.09715362243064"><g><svg xmlns="http://www.w3.org/2000/svg" xmlns:xlink="http://www.w3.org/1999/xlink" version="1.1" x="0" y="0" viewBox="4.999008546989031 14.594925651449012 90.00106069214536 70.81308165382336" enable-background="new 0 0 100 100" xml:space="preserve" height="60.660252143217335" width="77.09715362243064" class="icon-icon-0" data-fill-palette-color="accent" id="icon-0"><g fill="#e0e9ee" data-fill-palette-color="accent"><g fill="#e0e9ee" data-fill-palette-color="accent"><path d="M23.149 57.792A2.646 2.646 0 0 1 21.279 62.308 2.65 2.65 0 0 1 19.409 61.532L14.461 56.584 9.513 61.532C9.001 62.043 8.322 62.308 7.643 62.308S6.285 62.043 5.773 61.532A2.646 2.646 0 0 1 5.773 57.792L10.721 52.844 5.773 47.896A2.646 2.646 0 0 1 5.773 44.156 2.63 2.63 0 0 1 9.513 44.156L14.461 49.104 19.409 44.156A2.63 2.63 0 0 1 23.149 44.156 2.646 2.646 0 0 1 23.149 47.896L18.201 52.844z" fill="#000000" data-fill-palette-color="accent"></path></g></g><g fill="#e0e9ee" data-fill-palette-color="accent"><g fill="#e0e9ee" data-fill-palette-color="accent"><path d="M48.435 36.184A2.646 2.646 0 0 1 48.435 39.924 2.68 2.68 0 0 1 46.565 40.7 2.68 2.68 0 0 1 44.687 39.924L39.748 34.976 34.8 39.924C34.28 40.435 33.6 40.7 32.93 40.7A2.65 2.65 0 0 1 31.06 39.924 2.63 2.63 0 0 1 31.06 36.184L36.008 31.236 31.06 26.288A2.63 2.63 0 0 1 31.06 22.548 2.63 2.63 0 0 1 34.8 22.548L39.748 27.496 44.687 22.548A2.64 2.64 0 0 1 48.435 22.548 2.646 2.646 0 0 1 48.435 26.288L43.487 31.236z" fill="#000000" data-fill-palette-color="accent"></path></g></g><g fill="#e0e9ee" data-fill-palette-color="accent"><g fill="#e0e9ee" data-fill-palette-color="accent"><path d="M94.226 68.737A2.646 2.646 0 0 1 92.356 73.253 2.6 2.6 0 0 1 90.486 72.477L85.538 67.529 80.59 72.477C80.07 72.997 79.391 73.253 78.72 73.253A2.6 2.6 0 0 1 76.85 72.477 2.63 2.63 0 0 1 76.85 68.737L81.798 63.789 76.85 58.841A2.63 2.63 0 0 1 76.85 55.101 2.646 2.646 0 0 1 80.59 55.101L85.538 60.049 90.486 55.101A2.646 2.646 0 0 1 94.226 55.101 2.646 2.646 0 0 1 94.226 58.841L89.278 63.789z" fill="#000000" data-fill-palette-color="accent"></path></g></g><g fill="#e0e9ee" data-fill-palette-color="accent"><g fill="#e0e9ee" data-fill-palette-color="accent"><path d="M79.356 18.633L63.348 14.673A2.64 2.64 0 0 0 60.147 16.605L56.187 32.604A2.65 2.65 0 0 0 58.118 35.814C58.33 35.867 58.541 35.885 58.753 35.885A2.64 2.64 0 0 0 61.319 33.874L63.744 24.067 64.441 25.222C72.564 38.698 68.216 56.276 54.739 64.408A29 29 0 0 1 51.82 65.934 6 6 0 0 0 51.556 65.493 12.76 12.76 0 0 0 43.424 59.928 13 13 0 0 0 40.76 59.646C34.71 59.646 29.418 63.95 28.166 69.877A12.78 12.78 0 0 0 29.992 79.57 12.78 12.78 0 0 0 38.124 85.135 13 13 0 0 0 40.788 85.408C46.838 85.408 52.13 81.104 53.382 75.177 53.673 73.766 53.735 72.346 53.567 70.961A33 33 0 0 0 57.474 68.941C73.446 59.301 78.606 38.469 68.975 22.488L68.278 21.341 78.086 23.766A2.644 2.644 0 0 0 79.356 18.633M48.196 74.091C47.464 77.584 44.351 80.115 40.788 80.115A7.8 7.8 0 0 1 39.218 79.956 7.6 7.6 0 0 1 34.42 76.675 7.53 7.53 0 0 1 33.353 70.969C34.085 67.476 37.198 64.936 40.762 64.936 41.291 64.936 41.82 64.989 42.341 65.104A7.55 7.55 0 0 1 47.13 68.376 7.5 7.5 0 0 1 48.196 74.091" fill="#000000" data-fill-palette-color="accent"></path></g></g></svg></g></svg></g><g></g></svg></g></svg></g></svg></g></svg></g><defs></defs></svg><rect width="320" height="360" fill="none" stroke="none" visibility="hidden"></rect></g></svg></g></svg>